<svg width="75" height="24" viewBox="0 0 75 24" fill="none" xmlns="http://www.w3.org/2000/svg">
<g clip-path="url(#clip0_1413_357)">
<path d="M9.07076 0.196777C4.0686 0.196777 0 5.35258 0 11.6914C0 18.0292 4.07018 23.186 9.07393 23.186H19.7423C24.7436 23.186 28.813 18.0302 28.813 11.6914C28.813 5.35258 24.7468 0.196777 19.7486 0.196777H9.07076Z" fill="#355A8C"/>
<path d="M0.177979 11.6914C0.177979 5.46774 4.15963 0.422119 9.07088 0.422119C13.9821 0.422119 17.9638 5.46774 17.9638 11.6914C17.9638 17.915 13.9821 22.9606 9.07088 22.9606C4.15963 22.9606 0.177979 17.915 0.177979 11.6914Z" fill="#C1C3C5"/>
<path d="M7.31361 18.0764C6.26837 17.6136 5.3625 16.7505 4.72138 15.6066C4.08026 14.4627 3.7356 13.0945 3.73511 11.6915C3.73514 10.2888 4.07924 8.92085 4.7198 7.77694C5.36035 6.63303 6.26567 5.76973 7.31045 5.30655L7.31361 18.0764ZM10.8281 18.0613C11.6325 18.4179 12.4926 18.5252 13.3365 18.3743C14.1803 18.2233 14.9834 17.8185 15.6785 17.1937C16.3736 16.5688 16.9405 15.7421 17.3318 14.7828C17.7232 13.8234 17.9275 12.7592 17.9278 11.6792C17.928 10.5993 17.7242 9.53496 17.3334 8.57527C16.9425 7.61558 16.376 6.78845 15.6812 6.16306C14.9865 5.53766 14.1836 5.1322 13.3398 4.98057C12.496 4.82894 11.6359 4.93557 10.8312 5.29152L10.8281 18.0613ZM31.0889 19.7803V19.5939C31.3015 19.5719 31.4486 19.5228 31.5284 19.4477C31.6525 19.3355 31.7545 19.1001 31.8343 18.7445C31.8343 18.7445 32.99 13.4424 33.0327 13.2131C33.0477 13.1289 33.0548 13.0458 33.0548 12.9626C33.0548 12.594 32.8896 12.4878 32.4114 12.4507V12.2644H34.6619V12.4507C34.4223 12.4918 34.2571 12.5559 34.167 12.6441C34.0769 12.7322 33.9931 12.9506 33.9164 13.2992L32.8019 18.3949C32.7244 18.7545 32.6951 18.9839 32.6951 19.1041C32.6951 19.4798 32.9078 19.5719 33.3165 19.5929V19.7793H31.0889V19.7803Z" fill="#355A8C"/>
<path d="M34.1408 19.7802H33.4531C33.4531 19.7802 34.2863 16.0118 34.3345 15.7724C34.3606 15.6171 34.3574 15.4188 34.2768 15.3166C34.2033 15.2234 34.012 15.2104 33.7725 15.2515V15.0612C34.1021 14.996 34.2649 14.958 34.4475 14.9089L35.242 14.6895C35.2575 14.7019 35.2698 14.7196 35.2776 14.7406L34.6871 17.1597C35.0483 16.4585 35.3495 15.9377 35.593 15.5961C36.019 14.992 36.4008 14.6905 36.7384 14.6905C37.1178 14.6905 37.347 14.966 37.347 15.4558C37.347 15.6351 37.3138 15.8275 37.2672 16.0529C37.2672 16.0529 36.6735 18.8036 36.6459 18.9528C36.634 19.0088 36.6266 19.0662 36.6237 19.1241C36.6237 19.2373 36.6617 19.3435 36.7565 19.3435C36.8332 19.3435 36.9218 19.2864 37.0229 19.1722C37.1233 19.058 37.2877 18.8136 37.5162 18.4389L37.645 18.5852C37.4024 19.0019 37.2103 19.2944 37.068 19.4627C36.8253 19.7592 36.5929 19.9064 36.3716 19.9064C36.17 19.9064 35.9408 19.7642 35.9408 19.3224C35.9447 19.1912 35.9589 19.049 35.9811 18.9348L36.5407 16.2011C36.5992 15.9026 36.6158 15.7103 36.6158 15.6281C36.6158 15.4478 36.5566 15.2956 36.385 15.2956C36.1629 15.2956 35.8839 15.55 35.5463 16.0609C35.3259 16.4048 35.1241 16.7672 34.9424 17.1457C34.7947 17.4476 34.6705 17.767 34.5717 18.0993C34.4792 18.4049 34.3369 18.9658 34.1408 19.7802V19.7802ZM37.63 19.4086C37.6316 19.3445 37.6371 19.2653 37.6522 19.1832L38.4869 15.2515H37.8118C37.8118 15.0511 37.8229 15.0341 37.9186 14.981C38.2174 14.8197 38.449 14.6645 38.6134 14.5142C38.7778 14.365 39.0015 14.0755 39.2861 13.6477L39.3572 13.5406C39.3659 13.5255 39.3772 13.5132 39.3902 13.5045C39.4032 13.4958 39.4176 13.491 39.4323 13.4905C39.4537 13.4948 39.4747 13.5022 39.4948 13.5125C39.5035 13.5386 39.509 13.5626 39.5106 13.5826C39.5114 13.6041 39.5106 13.6255 39.5082 13.6467L39.2553 14.8728H39.9785L39.9256 15.2495H39.1707L38.3715 19.0349C38.3422 19.1692 38.3913 19.3214 38.5043 19.3214C38.581 19.3214 38.6893 19.2243 38.8284 19.0289C38.9082 18.9248 39.0426 18.7164 39.2323 18.4049L39.3477 18.489L39.2853 18.6072C38.7754 19.5759 38.4086 19.9004 38.06 19.9004C37.7597 19.9034 37.63 19.664 37.63 19.4086V19.4086ZM40.6584 16.8713C40.8315 16.3434 41.1358 15.7263 41.531 15.2825C41.716 15.0742 41.9049 14.97 42.097 14.97C42.3041 14.97 42.4124 15.1523 42.4124 15.4368C42.4124 15.8305 42.2346 16.2272 41.8796 16.6268C41.5247 17.0265 41.0639 17.2779 40.4987 17.3831C40.5548 17.1928 40.6086 17.0215 40.6584 16.8713ZM39.9082 19.4987C40.1445 19.7802 40.4196 19.9205 40.7335 19.9205C41.1777 19.9205 41.6196 19.7201 42.0607 19.3184C42.3089 19.093 42.5002 18.8737 42.6338 18.6603L42.5184 18.5311C42.3231 18.7433 42.1168 18.9388 41.901 19.1161C41.3903 19.5007 40.9208 19.4797 40.5896 19.1211C40.4196 18.9378 40.3343 18.6813 40.3343 18.3508C40.3343 18.0743 40.3596 17.9441 40.4362 17.6366L40.6892 17.5975C41.2477 17.5077 41.7844 17.2669 42.263 16.8913C42.761 16.5066 43.0108 16.0448 43.0108 15.5049C43.0108 14.973 42.7183 14.7005 42.2559 14.7005C41.6314 14.7005 41.0267 15.0902 40.441 15.8705C39.8489 16.6499 39.5533 17.4563 39.5533 18.2887C39.5533 18.8146 39.6718 19.2173 39.9082 19.4987V19.4987ZM44.61 14.6615C44.6368 14.6615 44.655 14.6715 44.6653 14.6925C44.6757 14.7135 44.6812 14.7378 44.6811 14.7627C44.6792 14.7909 44.6763 14.8189 44.6724 14.8468L44.2282 17.0235L44.3262 16.7811C44.5396 16.2532 44.7886 15.7704 45.074 15.3326C45.3593 14.8959 45.6313 14.6775 45.8882 14.6775C46.1656 14.6775 46.3229 14.951 46.3229 15.2505C46.3229 15.5901 46.1625 15.8355 45.8969 15.8355C45.7135 15.8355 45.6305 15.7323 45.5775 15.6101L45.5246 15.4869C45.5135 15.4656 45.4993 15.4472 45.4827 15.4328C45.4646 15.419 45.4437 15.412 45.4226 15.4128C45.3072 15.4128 45.1404 15.6171 44.923 16.0258C44.7056 16.4345 44.5112 16.8773 44.3396 17.3531C44.2361 17.6416 44.1207 18.0242 43.9934 18.501C43.9136 18.8005 43.8068 19.2263 43.674 19.7772H42.9903C42.9903 19.7772 43.7681 16.1961 43.8266 15.8685C43.8804 15.537 43.8804 15.3446 43.7981 15.2325C43.7215 15.1293 43.5689 15.1333 43.2432 15.1814V14.9961C43.6511 14.8939 44.4503 14.6955 44.61 14.6615V14.6615Z" fill="#355A8C"/>
<path d="M46.6003 19.7802H45.9126C45.9126 19.7802 46.7458 16.0118 46.794 15.7724C46.8193 15.6171 46.8177 15.4188 46.7363 15.3166C46.6628 15.2234 46.4715 15.2104 46.2328 15.2515V15.0612C46.5624 14.996 46.7244 14.958 46.9078 14.9089L47.7023 14.6895C47.718 14.7015 47.7304 14.7194 47.7378 14.7406L47.1473 17.1597C47.5086 16.4585 47.8098 15.9377 48.0532 15.5961C48.4793 14.992 48.8611 14.6905 49.1986 14.6905C49.5773 14.6905 49.8065 14.965 49.8065 15.4558C49.8065 15.6351 49.7733 15.8275 49.7267 16.0528C49.7267 16.0528 49.1338 18.8035 49.1054 18.9528C49.0935 19.0088 49.0861 19.0662 49.0832 19.1241C49.0832 19.2373 49.1212 19.3435 49.216 19.3435C49.2927 19.3435 49.3812 19.2864 49.4824 19.1722C49.5828 19.058 49.7472 18.8136 49.9749 18.4389L50.1037 18.5852C49.8611 19.0019 49.669 19.2944 49.5267 19.4627C49.284 19.7592 49.0516 19.9064 48.8295 19.9064C48.6279 19.9064 48.3995 19.7652 48.3995 19.3224C48.4026 19.1912 48.4176 19.049 48.439 18.9348L48.9986 16.2011C49.0579 15.9026 49.0745 15.7103 49.0745 15.6281C49.0745 15.4478 49.0152 15.2956 48.8437 15.2956C48.6216 15.2956 48.3418 15.55 48.0042 16.0609C47.7838 16.4048 47.582 16.7672 47.4003 17.1457C47.2532 17.448 47.1291 17.7673 47.0296 18.0993C46.9387 18.4049 46.7956 18.9658 46.6003 19.7802V19.7802ZM52.7637 17.9631C52.3495 18.8737 51.9187 19.3294 51.4721 19.3294C51.1701 19.3294 50.9393 19.069 50.9393 18.469C50.9393 17.873 51.1211 17.1627 51.4847 16.3373C51.8989 15.3997 52.3471 14.9309 52.8301 14.9309C53.1084 14.9309 53.3313 15.1794 53.3313 15.7183C53.3321 16.3864 53.1423 17.1347 52.7637 17.9631V17.9631ZM50.993 16.0118C50.4365 16.8672 50.1583 17.6876 50.1583 18.475C50.1583 18.9328 50.2563 19.2864 50.4516 19.5358C50.763 19.9325 51.1337 19.9896 51.5479 19.8083C51.7464 19.7071 51.9535 19.5348 52.1693 19.2914C52.4556 18.9658 52.7026 18.5884 52.902 18.1715C52.8561 18.3821 52.8168 18.595 52.7843 18.8096C52.7005 19.3385 52.6989 19.5709 52.8151 19.7572C52.8455 19.8054 52.8845 19.8438 52.9289 19.8692C52.9733 19.8946 53.0218 19.9063 53.0704 19.9034C53.2388 19.9034 53.4166 19.8143 53.6032 19.636C53.7897 19.4587 54.0364 19.1201 54.3447 18.6212L54.238 18.503C53.8261 19.0309 53.7012 19.1662 53.7012 19.1662C53.5597 19.3104 53.4783 19.3294 53.419 19.2653C53.3969 19.2413 53.3858 19.2032 53.3858 19.1501C53.3858 19.068 53.4404 18.7374 53.5502 18.1604C54.1969 14.958 54.2174 14.8618 54.238 14.7747C54.2435 14.7406 54.2443 14.7176 54.2403 14.7045C54.2356 14.6915 54.2206 14.6845 54.1937 14.6845L53.6925 14.7576C53.6593 14.7616 53.6396 14.7717 53.6301 14.7887C53.6111 14.8388 53.5012 15.3146 53.5012 15.3146L53.4791 15.2355C53.3684 14.8488 53.136 14.6785 52.7779 14.6785C52.1614 14.6785 51.5669 15.1223 50.993 16.0118V16.0118ZM54.453 19.4086C54.4538 19.3445 54.4601 19.2653 54.4751 19.1832L55.3091 15.2515H54.6348C54.6348 15.0491 54.6474 15.0341 54.7407 14.981C55.0395 14.8197 55.2711 14.6645 55.4355 14.5142C55.5999 14.365 55.8237 14.0755 56.1082 13.6477L56.1794 13.5406C56.188 13.5255 56.1993 13.5132 56.2123 13.5045C56.2254 13.4958 56.2398 13.491 56.2545 13.4905C56.2758 13.495 56.2968 13.5024 56.3169 13.5125C56.3256 13.5386 56.3311 13.5626 56.3327 13.5826C56.3343 13.6027 56.3335 13.6247 56.3304 13.6467L56.0774 14.8728H56.8007L56.7477 15.2495H55.9928L55.1936 19.0349C55.1644 19.1692 55.2134 19.3214 55.3272 19.3214C55.4039 19.3214 55.5114 19.2243 55.6513 19.0289C55.7312 18.9248 55.8656 18.7164 56.0553 18.4049L56.1707 18.489L56.1082 18.6072C55.8537 19.091 55.63 19.4276 55.4355 19.6169C55.2419 19.8063 55.0577 19.9004 54.883 19.9004C54.581 19.9034 54.453 19.664 54.453 19.4086V19.4086ZM58.3176 13.4514C58.0749 13.4514 57.8781 13.1769 57.8781 12.8384C57.8781 12.4938 58.0742 12.2193 58.3176 12.2193C58.5595 12.2193 58.7619 12.4928 58.7619 12.8384C58.7611 13.185 58.5587 13.4514 58.3176 13.4514ZM58.4259 14.6805C58.4425 14.6935 58.4488 14.7096 58.4457 14.7286L57.5493 18.7444C57.5214 18.87 57.5006 18.9979 57.4868 19.1271C57.4868 19.2413 57.5082 19.3405 57.6244 19.3405C57.7248 19.3405 57.8576 19.2303 58.0236 19.0079C58.1216 18.8767 58.2409 18.6893 58.3832 18.4449L58.4986 18.5691L58.4544 18.6473C58.2322 19.042 58.0489 19.3244 57.9042 19.4967C57.6765 19.7672 57.4544 19.9014 57.2386 19.9014C56.9833 19.9014 56.7944 19.5889 56.7944 19.2213C56.7944 19.0039 56.8133 18.8947 56.8782 18.5792C56.8782 18.5792 57.509 15.6431 57.5216 15.564C57.5273 15.527 57.5302 15.4895 57.5303 15.4518C57.5303 15.1814 57.4109 15.1543 56.9485 15.1543V14.969C57.2349 14.9255 57.5206 14.8747 57.8054 14.8167C57.9477 14.7867 58.0821 14.7536 58.2093 14.7156C58.3382 14.6805 58.4101 14.6675 58.4259 14.6805V14.6805ZM59.9112 16.2031C60.3073 15.3446 60.7325 14.9149 61.1855 14.9149C61.606 14.9149 61.8337 15.2715 61.8337 16.0849C61.8337 16.749 61.6748 17.4763 61.3586 18.2676C60.9855 19.1902 60.5586 19.652 60.0757 19.652C59.6014 19.652 59.3516 19.1932 59.3516 18.5722C59.3516 17.7938 59.5381 17.0055 59.9112 16.2031V16.2031ZM59.4101 15.8315C58.8599 16.5818 58.5848 17.3671 58.5848 18.1885C58.5848 19.2764 59.1176 19.9034 59.9342 19.9034C60.5823 19.9034 61.1918 19.5067 61.7625 18.7114C62.3159 17.9461 62.5925 17.1667 62.5925 16.3714C62.5925 15.9136 62.4906 15.5169 62.2866 15.1814C62.0827 14.8458 61.7317 14.6785 61.2345 14.6785C60.58 14.6785 59.9721 15.0632 59.4101 15.8315V15.8315ZM63.1056 19.7802H62.4171C62.4171 19.7802 63.2502 16.0118 63.2984 15.7724C63.3245 15.6171 63.3214 15.4188 63.2407 15.3166C63.1672 15.2234 62.9759 15.2104 62.7364 15.2515V15.0612C63.066 14.996 63.2289 14.958 63.4115 14.9089L64.2059 14.6895C64.2214 14.7018 64.2338 14.7196 64.2415 14.7406L63.651 17.1597C64.0122 16.4585 64.3134 15.9377 64.5561 15.5961C64.9822 14.992 65.364 14.6905 65.7015 14.6905C66.0809 14.6905 66.3102 14.966 66.3102 15.4558C66.3102 15.6351 66.277 15.8275 66.2303 16.0528C66.2303 16.0528 65.6375 18.8035 65.609 18.9528C65.5972 19.0088 65.5897 19.0662 65.5869 19.1241C65.5869 19.2373 65.624 19.3435 65.7205 19.3435C65.7971 19.3435 65.8857 19.2864 65.9861 19.1722C66.0865 19.058 66.2509 18.8136 66.4793 18.4389L66.6082 18.5852C66.3655 19.0019 66.1734 19.2944 66.0311 19.4627C65.7885 19.7592 65.5561 19.9064 65.3347 19.9064C65.1331 19.9064 64.9039 19.7642 64.9039 19.3224C64.9079 19.1912 64.9221 19.049 64.9442 18.9348L65.5039 16.2011C65.5632 15.9026 65.579 15.7103 65.579 15.6281C65.579 15.4488 65.5205 15.2956 65.3482 15.2956C65.126 15.2956 64.847 15.55 64.5095 16.0609C64.289 16.4048 64.0872 16.7672 63.9055 17.1457C63.7582 17.4478 63.634 17.7672 63.5348 18.0993C63.4439 18.4049 63.3008 18.9658 63.1056 19.7802V19.7802ZM69.2689 17.9631C68.8547 18.8737 68.4247 19.3294 67.9773 19.3294C67.6753 19.3294 67.4445 19.069 67.4445 18.469C67.4445 17.873 67.6263 17.1627 67.9899 16.3373C68.4042 15.3997 68.8524 14.9309 69.3353 14.9309C69.6136 14.9309 69.8365 15.1794 69.8365 15.7183C69.8373 16.3864 69.6476 17.1347 69.2689 17.9631V17.9631ZM67.4983 16.0118C66.9418 16.8672 66.6635 17.6876 66.6635 18.475C66.6635 18.9328 66.7615 19.2864 66.9568 19.5358C67.2682 19.9325 67.6406 19.9896 68.0532 19.8083C68.2516 19.7071 68.4587 19.5348 68.6753 19.2914C69.0413 18.8867 69.3013 18.3969 69.4073 18.1715C69.3617 18.3822 69.3224 18.5951 69.2895 18.8096C69.2065 19.3385 69.2041 19.5709 69.3211 19.7572C69.3515 19.8054 69.3905 19.8439 69.4349 19.8693C69.4793 19.8947 69.5278 19.9064 69.5764 19.9034C69.7448 19.9034 69.9227 19.8143 70.1092 19.636C70.2958 19.4587 70.5424 19.1201 70.8507 18.6212L70.7448 18.503C70.3329 19.0309 70.2072 19.1662 70.2072 19.1662C70.0618 19.3134 69.9827 19.3284 69.9258 19.2653C69.9037 19.2413 69.8926 19.2032 69.8926 19.1501C69.8926 19.068 69.9472 18.7374 70.057 18.1604C70.7037 14.958 70.7242 14.8618 70.7456 14.7747C70.7511 14.7406 70.7519 14.7176 70.7471 14.7045C70.7432 14.6915 70.7274 14.6845 70.7005 14.6845L70.1985 14.7576C70.1653 14.7616 70.1456 14.7717 70.1361 14.7887C70.1171 14.8388 70.0073 15.3146 70.0073 15.3146L69.9851 15.2355C69.8745 14.8488 69.642 14.6785 69.284 14.6785C68.6666 14.6785 68.0722 15.1223 67.4983 16.0118V16.0118ZM70.9961 18.5822C70.9961 18.5822 72.1882 12.9085 72.1985 12.8113C72.2007 12.772 72.202 12.7325 72.2024 12.6931C72.2024 12.4387 72.0791 12.4156 71.5945 12.4226V12.2373C71.8807 12.1892 72.2269 12.1291 72.3937 12.0971C72.5589 12.059 72.7605 12.0039 72.9976 11.9288C73.0182 11.9288 73.0387 11.9478 73.0601 11.9849C73.0601 11.9849 71.6293 18.9077 71.604 19.0389C71.5716 19.2152 71.6032 19.3986 71.7416 19.3986C71.8483 19.3986 71.9874 19.2784 72.1589 19.0389C72.3305 18.7995 72.4751 18.5661 72.5937 18.3418L72.7139 18.4479C72.4593 18.9248 72.2609 19.2543 72.1194 19.4376C71.8736 19.7492 71.6261 19.9044 71.3779 19.9044C71.1092 19.9044 70.9029 19.6901 70.9029 19.2864C70.9029 19.1351 70.9321 18.9137 70.9961 18.5822V18.5822ZM73.6711 12.7041C73.8134 12.5238 73.9842 12.4337 74.1849 12.4337C74.3857 12.4337 74.5573 12.5238 74.6988 12.7041C74.8402 12.8844 74.9122 13.1008 74.9122 13.3552C74.9122 13.6097 74.841 13.827 74.6988 14.0064C74.5565 14.1857 74.3857 14.2768 74.1849 14.2768C73.9842 14.2768 73.8126 14.1867 73.6711 14.0064C73.5296 13.826 73.4577 13.6097 73.4577 13.3552C73.4577 13.1008 73.5288 12.8844 73.6711 12.7041ZM74.2071 13.9513V13.8811C74.0577 13.8831 74.045 13.8571 74.045 13.78V13.3703C74.264 13.3643 74.3154 13.4093 74.3272 13.6477C74.3272 13.7267 74.3382 13.805 74.3596 13.8791C74.3849 13.9412 74.4355 13.9713 74.5098 13.9713C74.6316 13.9713 74.6964 13.9092 74.7114 13.6618H74.6537C74.6363 13.8591 74.6181 13.8791 74.5707 13.8791C74.5486 13.8791 74.5209 13.803 74.4885 13.6507C74.4561 13.4985 74.381 13.3993 74.2656 13.3522V13.3422C74.4616 13.3172 74.5889 13.203 74.5889 13.0427C74.5889 12.8494 74.4276 12.7332 74.1921 12.7332H73.7257V12.8023C73.849 12.8023 73.8869 12.8193 73.8869 12.9035V13.78C73.8869 13.8741 73.8529 13.8811 73.7257 13.8811V13.9513H74.2071V13.9513ZM73.6087 14.0865C73.7676 14.2878 73.9597 14.389 74.1849 14.389C74.4102 14.389 74.6023 14.2878 74.7612 14.0865C74.9201 13.8851 74.9999 13.6417 74.9999 13.3562C74.9999 13.0708 74.9201 12.8273 74.7612 12.626C74.6023 12.4247 74.4102 12.3235 74.1849 12.3235C73.9597 12.3235 73.7676 12.4247 73.6087 12.626C73.4498 12.8273 73.37 13.0708 73.37 13.3562C73.37 13.6417 73.449 13.8851 73.6087 14.0865ZM74.045 12.9035C74.045 12.8213 74.0948 12.8023 74.1739 12.8023C74.3264 12.8023 74.3936 12.8894 74.3936 13.0397C74.3936 13.1569 74.3604 13.233 74.294 13.2671C74.2129 13.2945 74.1288 13.3053 74.045 13.2991V12.9035ZM33.5479 10.1808C33.4428 10.1027 33.4112 9.90735 33.4372 9.68597C33.4578 9.55074 34.7242 3.79692 34.7242 3.79692C34.7771 3.55049 34.9162 3.46535 35.3146 3.46535C36.0395 3.46535 36.5407 3.71077 36.8189 4.20161C37.0972 4.69244 37.2363 5.29648 37.2363 6.0127C37.2363 6.75497 37.0988 7.48421 36.8237 8.20044C36.2877 9.58079 35.3605 10.27 34.0404 10.27C33.7922 10.271 33.6278 10.2409 33.5479 10.1808ZM34.2048 10.6366C35.4356 10.6366 36.4355 10.1718 37.2055 9.24121C37.9066 8.39377 38.2576 7.39206 38.2576 6.23708C38.2576 5.26943 37.9635 4.433 37.4671 3.86904C37.2054 3.57714 36.8915 3.37049 36.5525 3.26701C36.1766 3.16335 35.7926 3.11429 35.4079 3.12076H33.0594V3.30708C33.5969 3.3221 33.7653 3.44331 33.7653 3.81895C33.7653 3.98524 33.7234 4.1986 33.6586 4.50513L32.544 9.60083C32.4642 9.95644 32.3622 10.1918 32.2381 10.304C32.1583 10.3792 32.0112 10.4272 31.7986 10.4503V10.6366H34.2048V10.6366ZM39.7627 4.30779C39.52 4.30779 39.3232 4.03332 39.3232 3.69474C39.3232 3.35015 39.5192 3.07568 39.7627 3.07568C40.0054 3.07568 40.2069 3.34915 40.2069 3.69474C40.2069 4.04033 40.0054 4.30779 39.7627 4.30779ZM39.871 5.53789C39.8876 5.55091 39.8939 5.56694 39.8907 5.58597L38.9943 9.60183C38.9665 9.72737 38.9456 9.85524 38.9319 9.98448C38.9319 10.0987 38.9532 10.1978 39.0694 10.1978C39.1698 10.1978 39.3026 10.0877 39.4686 9.86528C39.5666 9.73406 39.686 9.54674 39.8283 9.30232L39.9437 9.42653L39.8994 9.50466C39.6773 9.89934 39.4939 10.1818 39.3493 10.3541C39.1216 10.6246 38.8995 10.7588 38.6837 10.7588C38.4291 10.7588 38.2394 10.4463 38.2394 10.0786C38.2394 9.86127 38.2584 9.75209 38.324 9.43655C38.324 9.43655 38.954 6.50053 38.9675 6.4214C38.9731 6.38443 38.976 6.34687 38.9761 6.30921C38.9761 6.03774 38.8544 6.0117 38.3951 6.0117V5.82738C38.8173 5.76127 39.0339 5.7192 39.2512 5.67512C39.3935 5.64507 39.5279 5.61202 39.6552 5.57395C39.7832 5.53689 39.8552 5.52487 39.871 5.53789V5.53789ZM40.5508 10.6366H39.8631C39.8631 10.6366 40.6962 6.86816 40.7437 6.62875C40.7697 6.47349 40.7666 6.27515 40.686 6.17297C40.6132 6.07981 40.4211 6.06679 40.1824 6.10786V5.91754C40.512 5.85243 40.6741 5.81436 40.8575 5.76528L41.6519 5.5459C41.6675 5.55814 41.6799 5.57591 41.6875 5.59699L41.097 8.01512C41.4583 7.31392 41.7594 6.79303 42.0029 6.45145C42.429 5.84742 42.8108 5.5459 43.1483 5.5459C43.5269 5.5459 43.7562 5.82037 43.7562 6.31121C43.7562 6.49052 43.723 6.68284 43.6763 6.90823C43.6763 6.90823 43.0835 9.65893 43.055 9.80818C43.0432 9.8642 43.0358 9.92159 43.0329 9.97947C43.0329 10.0927 43.0708 10.1988 43.1657 10.1988C43.2424 10.1988 43.3309 10.1418 43.4321 10.0276C43.5325 9.91336 43.6969 9.66894 43.9246 9.2943L44.0534 9.44055C43.8107 9.85727 43.6186 10.1498 43.4764 10.3181C43.2337 10.6146 43.0013 10.7628 42.7791 10.7628C42.6741 10.7609 42.5722 10.7167 42.4883 10.6366C42.3681 10.5284 42.3262 10.296 42.3594 9.97547C42.376 9.84224 42.9475 7.05548 42.9475 7.05548C43.0068 6.75697 43.0234 6.56464 43.0234 6.4825C43.0234 6.3032 42.9641 6.14993 42.7926 6.14993C42.5705 6.14993 42.2906 6.40437 41.9531 6.91524C41.7327 7.25914 41.5309 7.62159 41.3492 8.00009C41.2018 8.3022 41.0776 8.62154 40.9784 8.95372C40.8891 9.26125 40.746 9.82221 40.5508 10.6366V10.6366ZM45.27 7.72863C45.4423 7.20073 45.7466 6.58368 46.1426 6.13992C46.3276 5.93156 46.5157 5.82738 46.7086 5.82738C46.9157 5.82738 47.0232 6.00969 47.0232 6.29418C47.0232 6.68785 46.8454 7.08453 46.4905 7.48421C46.1355 7.8839 45.6755 8.13532 45.1103 8.2405C45.1664 8.04918 45.2194 7.87889 45.27 7.72863V7.72863ZM44.5198 10.3551C44.7561 10.6366 45.0312 10.7768 45.345 10.7768C45.7893 10.7768 46.2312 10.5765 46.6723 10.1748C46.886 9.98983 47.0786 9.76837 47.2446 9.51668L47.1292 9.38746C46.934 9.5994 46.728 9.79482 46.5126 9.97246C46.0019 10.3571 45.5316 10.3361 45.2012 9.97747C45.0312 9.79416 44.9459 9.53772 44.9459 9.20716C44.9459 8.93068 44.9711 8.80046 45.0478 8.49294L45.3008 8.45387C45.8593 8.36408 46.396 8.12324 46.8746 7.74766C47.3726 7.36301 47.6224 6.90122 47.6224 6.3613C47.6224 5.82838 47.3292 5.55692 46.8675 5.55692C46.243 5.55692 45.6375 5.94659 45.0518 6.72692C44.4597 7.50625 44.1641 8.31263 44.1641 9.14505C44.1649 9.67095 44.2834 10.0736 44.5198 10.3551Z" fill="#355A8C"/>
<path d="M48.994 5.51788C49.0209 5.51788 49.0391 5.5279 49.0494 5.54893C49.0598 5.56992 49.0653 5.59425 49.0652 5.61905C49.0629 5.64719 49.06 5.67525 49.0565 5.70319L48.6122 7.87991L48.7102 7.6375C48.9167 7.12129 49.1675 6.63553 49.458 6.18902C49.7434 5.75228 50.0153 5.53391 50.273 5.53391C50.5497 5.53391 50.7078 5.80737 50.7078 6.10688C50.7078 6.44646 50.5465 6.69188 50.2817 6.69188C50.0983 6.69188 50.0153 6.58771 49.9624 6.4665L49.9094 6.34329C49.8983 6.32169 49.8838 6.30327 49.8667 6.2892C49.8486 6.27539 49.8278 6.26843 49.8066 6.26916C49.6912 6.26916 49.5252 6.47351 49.307 6.88221C49.0897 7.29091 48.8952 7.73366 48.7237 8.20948C48.6201 8.49797 48.5047 8.88062 48.3774 9.35744C48.2976 9.65695 48.1909 10.0827 48.0581 10.6336H47.3735C47.3735 10.6336 48.1514 7.0525 48.2107 6.72494C48.2644 6.39337 48.2644 6.20104 48.1814 6.08885C48.1047 5.98568 47.953 5.98868 47.6265 6.03777V5.85545C48.0352 5.75028 48.8343 5.55194 48.994 5.51788V5.51788ZM50.0525 10.7989L50.2303 8.95976H50.3766C50.4422 9.41353 50.5189 9.7461 50.6074 9.95546C50.7702 10.3421 51.0129 10.5354 51.3354 10.5354C51.6959 10.5354 51.9749 10.1848 51.9749 9.65294C51.9749 9.32137 51.9054 9.13305 51.8105 8.96076L51.4421 8.26858C51.22 7.84886 51.0809 7.56738 51.0248 7.42514C50.809 6.88521 50.8667 6.33327 51.1734 5.92057C51.3583 5.67114 51.6208 5.54593 51.9615 5.54593C52.1069 5.54593 52.2721 5.58099 52.4587 5.6501C52.6452 5.71922 52.7725 5.75428 52.8405 5.75428C52.9891 5.75428 53.0437 5.67314 53.1021 5.54593H53.231L53.0492 7.14366H52.9029C52.8642 6.78003 52.8065 6.50657 52.7298 6.32325C52.5883 5.98167 52.363 5.81138 52.0555 5.81138C51.7939 5.81138 51.5536 6.02274 51.5536 6.41842C51.5536 6.57268 51.5765 6.70791 51.6224 6.82311C51.6682 6.93931 51.7726 7.14566 51.9354 7.44216L52.25 8.01615C52.4128 8.31265 52.5283 8.55507 52.5962 8.74138C52.6642 8.9297 52.6982 9.13205 52.6982 9.34842C52.6982 9.75311 52.5623 10.0947 52.2895 10.3722C52.0138 10.6506 51.6697 10.7977 51.3172 10.7879C51.1963 10.7879 51.0224 10.7558 50.7979 10.6927C50.6694 10.651 50.539 10.6193 50.4074 10.5976C50.2896 10.5976 50.2461 10.6647 50.1987 10.7999H50.0525V10.7989ZM59.0355 3.14182C59.2932 3.14182 59.5722 3.1859 59.8734 3.27405C60.1746 3.3622 60.3572 3.40627 60.4204 3.40627C60.6346 3.40627 60.6971 3.31411 60.7548 3.15284H60.9374L60.6117 5.39767L60.4552 5.37063C60.3643 4.10647 59.8995 3.54351 59.0877 3.54351C58.2774 3.54351 57.6095 4.05738 57.0862 5.08414C56.6362 5.94354 56.3974 6.95273 56.4 7.98409C56.4 8.75741 56.5392 9.34241 56.8174 9.73909C57.0949 10.1358 57.4522 10.3331 57.8893 10.3331C58.3254 10.3383 58.7545 10.1939 59.1311 9.91539C59.3541 9.7471 59.645 9.44458 60.0038 9.00784L60.1469 9.16711C59.4987 10.2099 58.6782 10.845 57.6933 10.845C56.9518 10.845 56.3834 10.5485 55.9866 9.95345C55.5944 9.37529 55.3827 8.63525 55.3914 7.8729C55.3914 6.73596 55.7226 5.68717 56.3858 4.72552C57.113 3.67072 57.996 3.14182 59.0355 3.14182V3.14182ZM60.5421 9.43857C60.5421 9.43857 61.7342 3.76488 61.7445 3.66772C61.7468 3.61863 61.7492 3.57957 61.7492 3.54952C61.7492 3.4223 61.7081 3.34417 61.6267 3.31612C61.5453 3.28807 61.3832 3.27505 61.1405 3.27905V3.09374C61.4267 3.04566 61.7729 2.98555 61.9397 2.9535C62.1049 2.91543 62.3065 2.86034 62.5436 2.78521C62.5642 2.78521 62.5847 2.80424 62.6061 2.84131C62.6061 2.84131 61.1753 9.76413 61.15 9.89535C61.12 10.0717 61.1492 10.255 61.2876 10.255C61.3943 10.255 61.5334 10.1348 61.7049 9.89535C61.8634 9.67699 62.0087 9.44395 62.1397 9.19816L62.2599 9.30435C62.0053 9.78116 61.8069 10.1107 61.6654 10.294C61.4196 10.6056 61.1722 10.7608 60.924 10.7608C60.8236 10.7627 60.725 10.7276 60.6402 10.6597C60.5129 10.5585 60.4497 10.3862 60.4497 10.1418C60.4489 9.99152 60.4781 9.77014 60.5421 9.43857V9.43857ZM62.5602 9.73107C62.5602 9.73107 63.1871 6.53762 63.1974 6.47151C63.2015 6.43904 63.2036 6.40622 63.2037 6.37334C63.2037 6.05179 63.0812 6.02474 62.667 6.02474V5.86647L64.025 5.53491C64.04 5.5309 64.0527 5.53891 64.0645 5.55694C64.0764 5.57498 64.0811 5.59401 64.078 5.61304L64.0645 5.69218C63.2582 9.61087 63.2258 9.78917 63.2211 9.84827C63.2211 10.0196 63.3049 10.1237 63.4298 10.1237C63.6045 10.1237 63.8226 9.92641 64.0843 9.53273C64.5869 8.78792 64.9935 7.94713 65.289 7.04148C65.3838 6.75299 65.5198 6.2932 65.6977 5.66313H66.368C66.368 5.66313 65.5143 9.72607 65.489 9.85929C65.4629 9.99953 65.4653 10.0777 65.4977 10.1438C65.5332 10.2149 65.6336 10.2189 65.7285 10.1328C65.7759 10.0897 65.8352 10.0226 65.9064 9.93242C65.998 9.8032 66.1372 9.58583 66.3277 9.29132L66.4518 9.3975C66.3158 9.68299 66.1735 9.92841 66.0257 10.1338C65.7324 10.5505 65.4605 10.7588 65.2091 10.7588C64.9491 10.7588 64.7649 10.5855 64.7649 10.2019C64.7649 9.83726 64.8858 9.33941 65.0621 8.50398L65.1601 8.02516H65.1285C64.7198 8.88363 64.3989 9.49166 64.1657 9.84727C63.7602 10.4583 63.3768 10.7638 63.0156 10.7638C62.923 10.7656 62.8315 10.7384 62.7492 10.6847C62.595 10.5805 62.5183 10.3922 62.5183 10.1227C62.5231 9.9825 62.5349 9.88434 62.5602 9.73107V9.73107ZM67.2146 10.0236C67.2146 9.41253 67.4011 8.64422 67.7743 7.71764C68.2027 6.65282 68.6533 6.11991 69.1236 6.11991C69.4904 6.11991 69.7631 6.49655 69.7631 7.08155C69.7631 7.72665 69.5576 8.43787 69.1457 9.21319C68.6896 10.0757 68.2003 10.5074 67.677 10.5074C67.3569 10.5074 67.2146 10.3171 67.2146 10.0236V10.0236ZM66.7933 10.5124C67.0478 10.6847 67.3276 10.7708 67.6328 10.7708C68.3015 10.7708 68.9481 10.3752 69.5726 9.58382C70.2145 8.77043 70.5362 7.89594 70.5362 6.96235C70.5362 6.56166 70.4374 6.22509 70.2406 5.95262C70.0437 5.68116 69.7821 5.54492 69.4572 5.54492C69.111 5.54492 68.775 5.73425 68.4501 6.11289C68.2636 6.33027 68.0375 6.67886 67.7711 7.15868L68.6548 2.90642L68.6635 2.83329C68.6635 2.80324 68.6572 2.7802 68.6438 2.76618C68.6324 2.75252 68.6175 2.74467 68.6019 2.74414C68.5339 2.74414 68.4209 2.76618 68.262 2.81126C68.1031 2.85633 68.0146 2.88037 67.9932 2.88438C67.6541 2.94849 67.432 2.97854 67.2344 3.0136V3.21194C67.5031 3.23097 67.6003 3.23798 67.6565 3.25101C67.798 3.3041 67.8209 3.40627 67.8209 3.50444C67.8143 3.63567 67.7979 3.76581 67.7719 3.8931L66.4447 10.1087C66.4217 10.2089 66.5387 10.3441 66.7933 10.5124V10.5124Z" fill="#355A8C"/>
</g>
<defs>
<clipPath id="clip0_1413_357">
<rect width="75" height="23" fill="white" transform="translate(0 0.191406)"/>
</clipPath>
</defs>
</svg>
