<svg width="35" height="21" viewBox="0 0 35 21" fill="none" xmlns="http://www.w3.org/2000/svg">
<g clip-path="url(#clip0_1404_250)">
<path d="M7.17114 6.81793C7.50589 6.68215 7.86296 6.60973 8.23342 6.60973C9.85511 6.60973 11.209 8.01102 11.5185 9.87397L13.8171 9.30368C13.2904 6.13902 10.9903 3.75647 8.23342 3.75647C7.60111 3.75647 6.99558 3.88139 6.42725 4.11313L7.17114 6.81793Z" fill="#FFCB05"/>
<path d="M4.45884 15.881L6.01358 13.7429C5.32027 12.9952 4.88286 11.9035 4.88286 10.6869C4.88286 9.47206 5.32027 8.38036 6.01358 7.63445L4.45884 5.49451C3.28051 6.76544 2.53662 8.62115 2.53662 10.6869C2.53662 12.7544 3.28051 14.6101 4.45884 15.881Z" fill="#00A4E0"/>
<path d="M11.5185 11.5052C11.2075 13.3664 9.85511 14.7659 8.23491 14.7659C7.86296 14.7659 7.5044 14.6934 7.17114 14.5559L6.42725 17.2643C6.99558 17.4942 7.6026 17.6191 8.23491 17.6191C10.9888 17.6191 13.2874 15.2402 13.8171 12.0792L11.5185 11.5052Z" fill="#EF4123"/>
<path d="M15.8269 13.8316C15.751 13.6831 15.6498 13.4459 15.5873 13.2703C15.2228 12.242 15.2065 11.1775 15.5129 10.1564C15.8507 9.03569 16.4964 8.17935 17.331 7.74122C18.3799 7.19266 19.5389 7.29948 20.5446 8.02546C21.1829 8.47083 21.6352 9.1588 21.9789 10.1328C22.022 10.2577 22.0607 10.3899 22.0994 10.504L15.8269 13.8316ZM17.9217 9.39416C17.1763 9.78341 16.7924 10.6343 16.8728 11.6301L20.0269 9.97713C19.4838 9.20225 18.7786 8.94517 17.9217 9.39416ZM20.4197 12.9897C20.4182 12.9897 20.4182 12.9915 20.4182 12.9915L20.3527 12.9372C20.1638 13.3083 19.8707 13.6107 19.5002 13.8062C18.795 14.1792 18.1419 14.0832 17.6717 13.5817L17.6286 13.6614C17.6286 13.6614 17.6286 13.6596 17.6271 13.6596L16.8267 15.117C17.026 15.2854 17.2388 15.4266 17.4619 15.5406C18.3457 15.9878 19.2503 15.9661 20.1414 15.4954C20.7857 15.155 21.2915 14.6372 21.6367 13.98L20.4197 12.9897ZM24.2909 5.59766V13.6976L25.3264 14.2081L24.7387 15.8774L23.5961 15.298C23.3402 15.1622 23.1646 14.9559 23.0337 14.7223C22.9072 14.4851 22.8135 14.1574 22.8135 13.7193V5.59766H24.2909ZM26.9719 11.6355C26.9719 10.9457 27.2233 10.3265 27.6191 9.90652L26.5568 8.4654C25.8367 9.24027 25.3829 10.3718 25.3829 11.6319C25.3814 12.8938 25.8352 14.0271 26.5538 14.802L27.6146 13.3608C27.2203 12.939 26.9719 12.3235 26.9719 11.6355ZM28.8584 13.933C28.6501 13.933 28.4478 13.8895 28.2603 13.8135L27.753 15.6474C28.0996 15.7887 28.4701 15.8665 28.8569 15.8665C30.5381 15.8683 31.9411 14.4163 32.2669 12.4882L30.7077 12.1008C30.5307 13.149 29.7704 13.9348 28.8584 13.933ZM28.8629 7.40448C28.4775 7.40448 28.1071 7.48052 27.7604 7.61992L28.2633 9.45572C28.4522 9.37968 28.6531 9.33804 28.8614 9.33804C29.7749 9.33985 30.5366 10.1292 30.7092 11.1793L32.2684 10.7954C31.9485 8.8637 30.5455 7.40629 28.8629 7.40448Z" fill="white"/>
</g>
<defs>
<clipPath id="clip0_1404_250">
<rect width="35" height="20" fill="white" transform="translate(0 0.691406)"/>
</clipPath>
</defs>
</svg>
